<?xml version="1.0"?>
<svg width="999.2" height="776" xmlns="http://www.w3.org/2000/svg" xmlns:svg="http://www.w3.org/2000/svg" enable-background="new 0 0 999.2 776" version="1.1" xml:space="preserve">
 <g class="layer">
  <title>Layer 1</title>
  <g id="svg_1">
   <rect fill="#FF5A00" height="291.64" id="rect19" width="155.93" x="431.9" y="178.68"/>
   <path d="m442.28,324.5c0,-59.25 26.76,-111.84 67.82,-145.82c-30.22,-24.73 -68.33,-39.68 -109.91,-39.68c-98.49,0 -178.19,82.96 -178.19,185.5s79.69,185.5 178.19,185.5c41.58,0 79.69,-14.95 109.91,-39.68c-41.12,-33.5 -67.82,-86.57 -67.82,-145.82z" fill="#EB001B" id="XMLID_330_"/>
   <path d="m798.2,324.5c0,102.54 -79.69,185.5 -178.19,185.5c-41.58,0 -79.69,-14.95 -109.91,-39.68c41.58,-34.04 67.82,-86.57 67.82,-145.82s-26.76,-111.84 -67.82,-145.82c30.16,-24.73 68.28,-39.68 109.85,-39.68c98.55,0 178.25,83.51 178.25,185.5z" fill="#F79E1B" id="path22"/>
  </g>
  <text fill="#ffffff" font-family="Serif" font-size="175" id="svg_2" stroke-width="0" text-anchor="middle" transform="matrix(1 0 0 1 0 0)" x="495.8" xml:space="preserve" y="686">Mastercard</text>
 </g>
</svg>