<svg width="22" height="15" viewBox="0 0 22 15" fill="none" xmlns="http://www.w3.org/2000/svg">
<path d="M6.968 6.44V7.976H0.392V6.44H6.968ZM21.2196 9.832C21.2196 10.3653 21.0863 10.8667 20.8196 11.336C20.5636 11.8053 20.1796 12.2 19.6676 12.52C19.1663 12.84 18.569 13.032 17.8756 13.096V14.392H16.8356V13.096C15.833 13 15.0223 12.6853 14.4036 12.152C13.785 11.6187 13.4756 10.9147 13.4756 10.04H15.4276C15.4596 10.456 15.593 10.8027 15.8276 11.08C16.0623 11.3467 16.3983 11.5173 16.8356 11.592V8.072C16.121 7.89067 15.5396 7.70933 15.0916 7.528C14.6436 7.336 14.2596 7.03733 13.9396 6.632C13.6303 6.22667 13.4756 5.672 13.4756 4.968C13.4756 4.08267 13.785 3.352 14.4036 2.776C15.0223 2.18933 15.833 1.848 16.8356 1.752V0.455999H17.8756V1.752C18.8143 1.83733 19.5663 2.136 20.1316 2.648C20.7076 3.14933 21.033 3.84267 21.1076 4.728H19.1556C19.1236 4.39733 18.9956 4.104 18.7716 3.848C18.5476 3.58133 18.249 3.4 17.8756 3.304V6.76C18.5903 6.93067 19.1716 7.112 19.6196 7.304C20.0676 7.48533 20.4463 7.77867 20.7556 8.184C21.065 8.57867 21.2196 9.128 21.2196 9.832ZM15.3316 4.872C15.3316 5.30933 15.4596 5.65067 15.7156 5.896C15.9823 6.14133 16.3556 6.33867 16.8356 6.488V3.256C16.377 3.30933 16.009 3.47467 15.7316 3.752C15.465 4.02933 15.3316 4.40267 15.3316 4.872ZM17.8756 11.592C18.345 11.5173 18.713 11.3307 18.9796 11.032C19.2463 10.7227 19.3796 10.3547 19.3796 9.928C19.3796 9.50133 19.2463 9.17067 18.9796 8.936C18.7236 8.69067 18.3556 8.49333 17.8756 8.344V11.592Z" fill="black"/>
</svg>
