<svg width="9" height="15" viewBox="0 0 9 15" fill="none" xmlns="http://www.w3.org/2000/svg">
<path d="M8.704 9.832C8.704 10.3653 8.57067 10.8667 8.304 11.336C8.048 11.8053 7.664 12.2 7.152 12.52C6.65067 12.84 6.05333 13.032 5.36 13.096V14.392H4.32V13.096C3.31733 13 2.50667 12.6853 1.888 12.152C1.26933 11.6187 0.96 10.9147 0.96 10.04H2.912C2.944 10.456 3.07733 10.8027 3.312 11.08C3.54667 11.3467 3.88267 11.5173 4.32 11.592V8.072C3.60533 7.89067 3.024 7.70933 2.576 7.528C2.128 7.336 1.744 7.03733 1.424 6.632C1.11467 6.22667 0.96 5.672 0.96 4.968C0.96 4.08267 1.26933 3.352 1.888 2.776C2.50667 2.18933 3.31733 1.848 4.32 1.752V0.455999H5.36V1.752C6.29867 1.83733 7.05067 2.136 7.616 2.648C8.192 3.14933 8.51733 3.84267 8.592 4.728H6.64C6.608 4.39733 6.48 4.104 6.256 3.848C6.032 3.58133 5.73333 3.4 5.36 3.304V6.76C6.07467 6.93067 6.656 7.112 7.104 7.304C7.552 7.48533 7.93067 7.77867 8.24 8.184C8.54933 8.57867 8.704 9.128 8.704 9.832ZM2.816 4.872C2.816 5.30933 2.944 5.65067 3.2 5.896C3.46667 6.14133 3.84 6.33867 4.32 6.488V3.256C3.86133 3.30933 3.49333 3.47467 3.216 3.752C2.94933 4.02933 2.816 4.40267 2.816 4.872ZM5.36 11.592C5.82933 11.5173 6.19733 11.3307 6.464 11.032C6.73067 10.7227 6.864 10.3547 6.864 9.928C6.864 9.50133 6.73067 9.17067 6.464 8.936C6.208 8.69067 5.84 8.49333 5.36 8.344V11.592Z" fill="black"/>
</svg>
